# xmcd
#
# Track frame offsets:
#	150
#	14462
#	27897
#	39634
#	54799
#	63910
#	74100
#	101249
#	110794
#	132583
#	139232
#	154829
#	161645
#	173471
#
# Disc length: 2459 seconds
#
# Revision: 1
# Processed by: cddbd v1.5.2PL0 Copyright (c) Steve Scherf et al.
# Submitted via: audiograbber 1.83.01
#
DISCID=c809990e
DTITLE=Varios - The Christmas Collection Disk07
DYEAR=1900
DGENRE=
TTITLE0=The Jericho Group - Got tell it on the mountain
TTITLE1=Ann Phillips - Amazing Grace
TTITLE2=The Staple Singers - Swing down Chariott
TTITLE3=The Jericho Group - Go Down Moses
TTITLE4=The Jericho Group - Old Time Religion
TTITLE5=The Staple Singers - I know I've got religion
TTITLE6=the 103 street Gospel Chor with guest Pat Lewis - The First Noel
TTITLE7=Ann Phillips - Gloria in excelsis deo
TTITLE8=the 103 street Gospel Chor with guest Pat Lewis - Ooh Child
TTITLE9=The Jericho Group - He's got the whole world in his hand
TTITLE10=Johnny Adams - the Lord's Prayer
TTITLE11=The Jericho Group - It's me pjm Lord
TTITLE12=Bishop Caines - The Christmas Song
TTITLE13=The Staple Singers - God's Wonderful Love
EXTD=
EXTT0=
EXTT1=
EXTT2=
EXTT3=
EXTT4=
EXTT5=
EXTT6=
EXTT7=
EXTT8=
EXTT9=
EXTT10=
EXTT11=
EXTT12=
EXTT13=
PLAYORDER=
